<svg xmlns="http://www.w3.org/2000/svg" xmlns:xlink="http://www.w3.org/1999/xlink" id="sapIllus-Spot-NoEntries" width="128" height="128" viewBox="0 0 128 128"><rect style="fill:var(--sapIllus_ObjectFillColor)" width="69.981" height="69.981" x="28.964" y="34.004" class="sapIllus_ObjectFillColor" rx="3"/><path style="fill:var(--sapIllus_BrandColorSecondary)" d="M32.0093,34.0036H95.9907a3,3,0,0,1,3,3v10.045a0,0,0,0,1,0,0H29.0093a0,0,0,0,1,0,0V37.0036A3,3,0,0,1,32.0093,34.0036Z" class="sapIllus_BrandColorSecondary"/><path style="fill:var(--sapIllus_PatternShadow)" d="M31.9855,34.0036H95.9669a3,3,0,0,1,3,3v10.045a0,0,0,0,1,0,0H28.9855a0,0,0,0,1,0,0V37.0036A3,3,0,0,1,31.9855,34.0036Z" class="sapIllus_PatternShadow"/><g><rect style="fill:var(--sapIllus_Layering2)" width="13.995" height="5.001" x="35.999" y="58.001" class="sapIllus_Layering2" rx="1.026"/><rect style="fill:var(--sapIllus_Layering2)" width="14.048" height="4.996" x="56.952" y="58.001" class="sapIllus_Layering2" rx="1.027"/><rect style="fill:var(--sapIllus_Layering2)" width="14.001" height="4.998" x="77.996" y="58.001" class="sapIllus_Layering2" rx="1.026"/><rect style="fill:var(--sapIllus_Layering2)" width="13.995" height="5.001" x="35.999" y="68.994" class="sapIllus_Layering2" rx="1.026"/><rect style="fill:var(--sapIllus_Layering2)" width="14.048" height="4.996" x="56.952" y="68.994" class="sapIllus_Layering2" rx="1.027"/><rect style="fill:var(--sapIllus_Layering2)" width="14.001" height="4.998" x="77.996" y="68.994" class="sapIllus_Layering2" rx="1.026"/><rect style="fill:var(--sapIllus_Layering2)" width="13.995" height="5.001" x="36.001" y="80.004" class="sapIllus_Layering2" rx="1.026"/><rect style="fill:var(--sapIllus_Layering2)" width="14.048" height="4.996" x="56.955" y="80.004" class="sapIllus_Layering2" rx="1.027"/><rect style="fill:var(--sapIllus_Layering2)" width="14.001" height="4.998" x="77.998" y="80.004" class="sapIllus_Layering2" rx="1.026"/><rect style="fill:var(--sapIllus_Layering2)" width="13.995" height="5.001" x="35.977" y="90.944" class="sapIllus_Layering2" rx="1.026"/><rect style="fill:var(--sapIllus_Layering2)" width="14.048" height="4.996" x="56.931" y="90.944" class="sapIllus_Layering2" rx="1.027"/><rect style="fill:var(--sapIllus_Layering2)" width="14.001" height="4.998" x="77.975" y="90.944" class="sapIllus_Layering2" rx="1.026"/></g><path style="fill:var(--sapIllus_Layering1)" d="M111.5236,30.0221l-.0405-.001-10.5792-.4453a.9673.9673,0,0,1-.8754-.6808,1.0141,1.0141,0,0,1,.3087-1.0858,96.2406,96.2406,0,0,1,9.0318-6.6824l-6.8508.2506-.0348,0a.9956.9956,0,0,1-.033-1.9885l10.55-.3856a.9638.9638,0,0,1,.96.7187,1.0083,1.0083,0,0,1-.4433,1.1359,94.1247,94.1247,0,0,0-9.9251,6.84l7.97.3356a.9956.9956,0,0,1-.0386,1.9881Z" class="sapIllus_Layering1"/><path style="fill:var(--sapIllus_Layering1)" d="M122.0188,10.9917l-.0416-.001-7.0281-.2931a.9919.9919,0,0,1-.8989-.6929,1.0268,1.0268,0,0,1,.317-1.1051c1.592-1.3171,3.2545-2.5611,4.9683-3.7195l-3.2874.1191-.0357,0a1.0129,1.0129,0,0,1-.0339-2.0239l7.01-.254a.99.99,0,0,1,.986.7319,1.0214,1.0214,0,0,1-.4553,1.1555,62.0992,62.0992,0,0,0-5.7763,3.8792l4.3158.18a1.0129,1.0129,0,0,1-.04,2.0234Z" class="sapIllus_Layering1"/><path style="fill:var(--sapIllus_StrokeDetailColor)" d="M95.9907,34.0035H31.964a3,3,0,0,0-3,3V47.0487h.0453v53.9362a3,3,0,0,0,3,3H95.9907a3,3,0,0,0,3-3V37.0035A3,3,0,0,0,95.9907,34.0035Zm-.0454,1a2.0023,2.0023,0,0,1,2,2v9.0452H30.0093V37.0035a2.0023,2.0023,0,0,1,2-2Zm2.0454,65.9814a2.0023,2.0023,0,0,1-2,2H32.0093a2.0023,2.0023,0,0,1-2-2V47.0487H31.83l66.16,2.9006Z" class="sapIllus_StrokeDetailColor"/></svg>